<?xml version="1.0" encoding="iso-8859-1"?>
<!-- Generator: Adobe Illustrator 19.0.0, SVG Export Plug-In . SVG Version: 6.00 Build 0)  -->
<svg version="1.1" id="Layer_1" xmlns="http://www.w3.org/2000/svg" xmlns:xlink="http://www.w3.org/1999/xlink" x="0px" y="0px" viewBox="0 0 511.999 511.999" style="enable-background:new 0 0 511.999 511.999;" xml:space="preserve">
  <path style="fill:#B3B3B3;" d="M463.914,475.411v8.998c0,10.581-8.582,19.163-19.175,19.163H67.257
	c-10.581,0-19.163-8.582-19.163-19.163v-8.998h150.667h114.486H463.914z" />
  <path style="fill:#CCCCCC;" d="M463.914,467.986v7.425H313.247v-38.136c0-6.852-5.56-12.401-12.412-12.401h-89.672
	c-6.852,0-12.401,5.549-12.401,12.401v38.136H48.094v-7.425V318.802v-37.361h415.82v37.361V467.986z M428.654,402.498v-96.839
	h-345.3v96.839H428.654z" />
  <path style="fill:#E6E6E6;" d="M463.914,44.583v236.857H48.094V44.583v-6.582h415.82V44.583z M432.788,252.898V66.544H79.22v186.354
	H432.788z" />
  <path style="fill:#B3B3B3;" d="M463.914,24.477v13.524H48.094V24.477c0-8.863,7.178-16.052,16.041-16.052h383.728
	C456.725,8.425,463.914,15.614,463.914,24.477z" />
  <rect x="79.226" y="66.544" style="fill:#2BA5F7;" width="353.568" height="186.354" />
  <rect x="83.348" y="305.659" style="fill:#FFFFFF;" width="345.3" height="96.839" />
  <path style="fill:#B3B3B3;" d="M313.247,437.275v38.136H198.761v-38.136c0-6.852,5.549-12.401,12.401-12.401h89.672
	C307.687,424.874,313.247,430.423,313.247,437.275z" />
  <g>
    <path style="fill:#333333;" d="M447.861,0H64.139C50.644,0,39.665,10.979,39.665,24.474V38v6.579v430.833v8.992
		c0,15.216,12.379,27.595,27.595,27.595h377.481c15.216,0,27.594-12.379,27.594-27.595v-8.992V44.58v-6.579V24.474
		C472.335,10.979,461.355,0,447.861,0z M64.139,16.849H447.86c4.204,0,7.625,3.42,7.625,7.625v5.101H56.514v-5.101
		C56.514,20.27,59.934,16.849,64.139,16.849z M455.486,273.015H56.514V46.425h398.972V273.015z M444.741,495.151H67.259
		c-5.924,0-10.745-4.82-10.745-10.745v-0.567h398.972v0.567C455.486,490.331,450.666,495.151,444.741,495.151z M304.817,466.987
		h-97.633V437.28c0-2.197,1.787-3.984,3.983-3.984h89.666c2.196,0,3.983,1.787,3.983,3.984v29.708H304.817z M455.486,466.987
		h-133.82V437.28c0-11.488-9.345-20.834-20.833-20.834h-89.666c-11.488,0-20.833,9.346-20.833,20.834v29.708H56.514V289.864h398.972
		V466.987z" />
    <path style="fill:#333333;" d="M79.217,261.323h353.565c4.654,0,8.425-3.772,8.425-8.425V66.542c0-4.653-3.771-8.425-8.425-8.425
		H79.217c-4.653,0-8.425,3.772-8.425,8.425v186.356C70.792,257.551,74.564,261.323,79.217,261.323z M87.642,74.966h336.716v169.507
		H87.642V74.966z" />
    <path style="fill:#333333;" d="M428.652,297.236H83.348c-4.653,0-8.425,3.772-8.425,8.425v96.841c0,4.653,3.772,8.425,8.425,8.425
		h345.303c4.654,0,8.425-3.772,8.425-8.425V305.66C437.076,301.008,433.306,297.236,428.652,297.236z M420.227,329.516H395.95
		v-15.431h24.277V329.516z M116.758,361.797v-15.432h26.993v15.432H116.758z M160.6,361.797v-15.432h26.993v15.432H160.6z
		 M204.443,361.797v-15.432h26.993v15.432H204.443z M248.285,346.365h26.993v15.432h-26.993V346.365z M292.127,361.797v-15.432
		h26.992v15.432H292.127z M335.968,361.797v-15.432h26.993v15.432H335.968z M379.811,346.365h15.431v15.432h-15.431V346.365z
		 M352.108,329.516v-15.431H379.1v15.431H352.108z M335.259,329.516h-26.993v-15.431h26.993V329.516z M291.417,329.516h-26.993
		v-15.431h26.993V329.516z M247.575,329.516h-26.993v-15.431h26.993V329.516z M203.734,329.516h-26.993v-15.431h26.993V329.516z
		 M159.892,329.516h-26.993v-15.431h26.993V329.516z M99.909,361.797h-8.136v-15.432h8.136
		C99.909,346.365,99.909,361.797,99.909,361.797z M159.892,378.646v15.431h-26.993v-15.431H159.892z M176.741,378.646h26.993v15.431
		h-26.993V378.646z M220.583,378.646h70.835v15.431h-70.835L220.583,378.646L220.583,378.646z M308.266,378.646h26.993v15.431
		h-26.993V378.646z M352.108,378.646H379.1v15.431h-26.992V378.646z M412.091,346.365h8.136v15.432h-8.136V346.365z M116.05,314.085
		v15.431H91.773v-15.431H116.05z M91.773,378.646h24.277v15.431H91.773V378.646z M395.95,394.077v-15.431h24.277v15.431H395.95z" />
    <path style="fill:#333333;" d="M391.882,80.616l-62.706,6.858H183.429l-62.707-6.858c-4.634-0.507-8.785,2.834-9.291,7.459
		c-0.505,4.626,2.833,8.785,7.459,9.291l55.654,6.087v80.83l-45.752,32.027c-3.812,2.668-4.739,7.921-2.07,11.733
		c1.639,2.341,4.253,3.595,6.908,3.595c1.668,0,3.354-0.494,4.823-1.523l47.17-33.019h76.299c4.654,0,8.425-3.772,8.425-8.425
		v-54.738h21.64v54.738c0,4.653,3.771,8.425,8.425,8.425h26.569l47.17,33.019c1.47,1.03,3.155,1.523,4.823,1.523
		c2.657,0,5.27-1.252,6.909-3.595c2.668-3.811,1.741-9.065-2.071-11.733l-45.752-32.027v-80.83l55.654-6.087
		c4.625-0.505,7.965-4.665,7.459-9.291C400.666,83.451,396.529,80.11,391.882,80.616z M300.411,117.082h-38.49
		c-4.654,0-8.425,3.772-8.425,8.425v54.738h-62.105v-75.921H321.21v75.921h-12.375v-54.738
		C308.836,120.854,305.065,117.082,300.411,117.082z" />
    <path style="fill:#333333;" d="M160.274,173.41c2.752-1.463,4.472-4.324,4.472-7.441v-40.463c0-4.428-3.428-8.1-7.845-8.404
		l-28.62-1.974c-4.638-0.315-8.664,3.183-8.985,7.825c-0.32,4.641,3.183,8.664,7.825,8.985l20.775,1.432v27.536l-27.108,14.402
		c-4.109,2.183-5.67,7.283-3.488,11.392c1.514,2.85,4.43,4.474,7.447,4.474c1.333,0,2.686-0.318,3.945-0.986L160.274,173.41z" />
    <path style="fill:#333333;" d="M390.462,175.308l-27.11-14.402V133.37l20.775-1.432c4.643-0.32,8.146-4.343,7.826-8.985
		c-0.321-4.643-4.377-8.137-8.984-7.825l-28.62,1.974c-4.418,0.304-7.845,3.978-7.845,8.404v40.463c0,3.116,1.72,5.978,4.472,7.441
		l31.581,16.777c1.259,0.669,2.612,0.986,3.945,0.986c3.017,0,5.933-1.624,7.447-4.474
		C396.132,182.591,394.571,177.49,390.462,175.308z" />
  </g>
  <g></g>
  <g></g>
  <g></g>
  <g></g>
  <g></g>
  <g></g>
  <g></g>
  <g></g>
  <g></g>
  <g></g>
  <g></g>
  <g></g>
  <g></g>
  <g></g>
  <g></g>
</svg>